<svg xmlns="http://www.w3.org/2000/svg" viewBox="0 0 24 24"><rect width="24" height="24" rx="5.5" fill="#2772ED"/><g transform="translate(12 12) scale(0.9) skewX(-10) translate(-12 -12.3)"><path fill="#fff" d="M1.578 7.98L6.307 18.51L10.093 16.69L4.822 6.42ZM10.078 18.539L13.497 10.248L10.903 8.952L6.322 16.661ZM10.878 10.195L13.976 18.421L17.624 16.779L13.522 9.005ZM17.657 18.343L20.115 10.696L17.437 9.624L13.943 16.857ZM1.4 7.2a1.8 1.8 0 1 0 3.6 0a1.8 1.8 0 1 0 -3.6 0ZM6.1 17.6a2.1 2.1 0 1 0 4.2 0a2.1 2.1 0 1 0 -4.2 0ZM10.75 9.6a1.45 1.45 0 1 0 2.9 0a1.45 1.45 0 1 0 -2.9 0ZM13.8 17.6a2 2 0 1 0 4 0a2 2 0 1 0 -4 0ZM17.334 10.16a1.442 1.442 0 1 0 2.884 0a1.442 1.442 0 1 0 -2.884 0Z"/></g><circle cx="19.994" cy="7.374" r="1.575" fill="#7CF2C4"/></svg>
